<svg width="200" height="115" viewBox="0 0 200 115" fill="none" xmlns="http://www.w3.org/2000/svg">
<rect width="200" height="115" fill="white"/>
<path d="M77.0737 55.0213C77.0737 53.9475 77.9527 53.0769 79.0369 53.0769C80.1211 53.0769 81 53.9475 81 55.0213V59.8825C81 60.9563 80.1211 61.8269 79.0369 61.8269C77.9527 61.8269 77.0737 60.9563 77.0737 59.8825V55.0213Z" fill="#6366F1"/>
<path d="M46 55.0213C46 53.9475 46.8789 53.0769 47.9631 53.0769C49.0474 53.0769 49.9263 53.9475 49.9263 55.0213V59.8825C49.9263 60.9563 49.0474 61.8269 47.9631 61.8269C46.8789 61.8269 46 60.9563 46 59.8825V55.0213Z" fill="#6366F1"/>
<path d="M69.3333 61.9839C69.3333 60.9059 70.1871 60.032 71.2404 60.032C72.2936 60.032 73.1474 60.9059 73.1474 61.9839V64.5865C73.1474 65.6645 72.2936 66.5384 71.2404 66.5384C70.1871 66.5384 69.3333 65.6645 69.3333 64.5865V61.9839Z" fill="#6366F1"/>
<path d="M53.8526 61.9839C53.8526 60.9059 54.7064 60.032 55.7596 60.032C56.8129 60.032 57.6667 60.9059 57.6667 61.9839V64.5865C57.6667 65.6645 56.8129 66.5384 55.7596 66.5384C54.7064 66.5384 53.8526 65.6645 53.8526 64.5865V61.9839Z" fill="#6366F1"/>
<path fill-rule="evenodd" clip-rule="evenodd" d="M61.5705 46.9406C61.5705 45.8688 62.4344 45 63.5 45C64.5656 45 65.4295 45.8688 65.4295 46.9406C65.4295 48.0123 66.2933 48.8811 67.359 48.8811L68.8454 48.8811C69.44 48.8811 69.9866 48.565 70.5437 48.356C70.7536 48.2773 70.9808 48.2343 71.2179 48.2343C72.2836 48.2343 73.1474 49.1031 73.1474 50.1748L73.1474 51.7111L73.1474 54.2177C73.1474 55.2894 72.2836 56.1582 71.2179 56.1582C70.2619 56.1582 69.4682 55.4589 69.3151 54.5411C69.2976 54.4359 69.2885 54.3279 69.2885 54.2177C69.2885 53.1459 68.4246 52.2771 67.359 52.2771C66.2933 52.2771 65.4295 53.1459 65.4295 54.2177L65.4295 54.5411L65.4295 67.9633C65.4295 69.035 64.5656 69.9038 63.5 69.9038C62.4344 69.9038 61.5705 69.035 61.5705 67.9633L61.5705 54.5411L61.5705 54.2177C61.5705 53.1459 60.7066 52.2771 59.641 52.2771C58.5754 52.2771 57.7115 53.1459 57.7115 54.2177C57.7115 54.3279 57.7024 54.4359 57.6849 54.5411C57.5318 55.4589 56.7381 56.1582 55.782 56.1582C54.7164 56.1582 53.8526 55.2894 53.8526 54.2177L53.8526 51.7111L53.8526 50.1748C53.8526 49.1031 54.7164 48.2343 55.782 48.2343C56.0192 48.2343 56.2464 48.2773 56.4563 48.356C57.0133 48.565 57.56 48.8811 58.1546 48.8811L59.641 48.8811C60.7066 48.8811 61.5705 48.0123 61.5705 46.9406Z" fill="#6366F1"/>
<path d="M93.744 63.4519V53.4519H96.016V63.4519H93.744ZM90.368 53.7719V51.7719H99.392V53.7719H90.368ZM100.93 63.4519V54.7639H103.154V63.4519H100.93ZM99.714 56.4279V54.7639H103.154V56.4279H99.714ZM101.746 53.7239C101.309 53.7239 100.983 53.6119 100.77 53.3879C100.567 53.1532 100.466 52.8652 100.466 52.5239C100.466 52.1612 100.567 51.8679 100.77 51.6439C100.983 51.4199 101.309 51.3079 101.746 51.3079C102.183 51.3079 102.503 51.4199 102.706 51.6439C102.909 51.8679 103.01 52.1612 103.01 52.5239C103.01 52.8652 102.909 53.1532 102.706 53.3879C102.503 53.6119 102.183 53.7239 101.746 53.7239ZM105.717 66.6519V54.7639H107.477V58.5079L107.205 58.4919C107.248 57.6066 107.429 56.8652 107.749 56.2679C108.08 55.6706 108.517 55.2279 109.061 54.9399C109.605 54.6412 110.213 54.4919 110.885 54.4919C111.504 54.4919 112.058 54.6039 112.549 54.8279C113.05 55.0519 113.477 55.3666 113.829 55.7719C114.192 56.1772 114.469 56.6519 114.661 57.1959C114.853 57.7292 114.949 58.3052 114.949 58.9239V59.2599C114.949 59.8892 114.853 60.4759 114.661 61.0199C114.48 61.5532 114.208 62.0279 113.845 62.4439C113.493 62.8492 113.066 63.1692 112.565 63.4039C112.064 63.6279 111.504 63.7399 110.885 63.7399C110.234 63.7399 109.637 63.6066 109.093 63.3399C108.56 63.0626 108.128 62.6412 107.797 62.0759C107.466 61.4999 107.28 60.7586 107.237 59.8519L107.941 60.9239V66.6519H105.717ZM110.325 61.8679C110.805 61.8679 111.221 61.7506 111.573 61.5159C111.936 61.2812 112.218 60.9559 112.421 60.5399C112.624 60.1132 112.725 59.6332 112.725 59.0999C112.725 58.5452 112.624 58.0652 112.421 57.6599C112.218 57.2546 111.936 56.9399 111.573 56.7159C111.221 56.4812 110.805 56.3639 110.325 56.3639C109.888 56.3639 109.482 56.4599 109.109 56.6519C108.746 56.8439 108.448 57.1266 108.213 57.4999C107.989 57.8732 107.877 58.3212 107.877 58.8439V59.4839C107.877 59.9852 107.994 60.4119 108.229 60.7639C108.464 61.1159 108.768 61.3879 109.141 61.5799C109.514 61.7719 109.909 61.8679 110.325 61.8679ZM120.681 63.5639C119.881 63.5639 119.219 63.4626 118.697 63.2599C118.185 63.0466 117.801 62.6946 117.545 62.2039C117.289 61.7026 117.161 61.0306 117.161 60.1879L117.177 52.3159H119.257L119.241 60.3319C119.241 60.7586 119.353 61.0892 119.577 61.3239C119.811 61.5479 120.142 61.6599 120.569 61.6599H121.929V63.5639H120.681ZM115.785 56.3959V54.7639H121.929V56.3959H115.785ZM126.755 63.7239C125.753 63.7239 124.974 63.3932 124.419 62.7319C123.875 62.0706 123.603 61.0892 123.603 59.7879V54.7479H125.827V59.9799C125.827 60.5132 125.977 60.9399 126.275 61.2599C126.574 61.5692 126.979 61.7239 127.491 61.7239C128.003 61.7239 128.419 61.5586 128.739 61.2279C129.07 60.8972 129.235 60.4492 129.235 59.8839V54.7479H131.459V63.4519H129.699V59.7559H129.875C129.875 60.6306 129.763 61.3612 129.539 61.9479C129.315 62.5346 128.979 62.9772 128.531 63.2759C128.083 63.5746 127.523 63.7239 126.851 63.7239H126.755ZM134.014 63.4519V54.7639H135.774V58.4919H135.614C135.614 57.6066 135.731 56.8706 135.966 56.2839C136.201 55.6866 136.547 55.2386 137.006 54.9399C137.475 54.6412 138.057 54.4919 138.75 54.4919H138.846C139.881 54.4919 140.665 54.8279 141.198 55.4999C141.731 56.1612 141.998 57.1532 141.998 58.4759V63.4519H139.774V58.2839C139.774 57.7506 139.619 57.3186 139.31 56.9879C139.011 56.6572 138.595 56.4919 138.062 56.4919C137.518 56.4919 137.075 56.6626 136.734 57.0039C136.403 57.3346 136.238 57.7826 136.238 58.3479V63.4519H134.014ZM148.277 63.7559C147.53 63.7559 146.874 63.6279 146.309 63.3719C145.754 63.1159 145.29 62.7746 144.917 62.3479C144.554 61.9106 144.277 61.4252 144.085 60.8919C143.904 60.3586 143.813 59.8146 143.813 59.2599V58.9559C143.813 58.3799 143.904 57.8252 144.085 57.2919C144.277 56.7479 144.554 56.2679 144.917 55.8519C145.29 55.4252 145.749 55.0892 146.293 54.8439C146.837 54.5879 147.466 54.4599 148.181 54.4599C149.12 54.4599 149.904 54.6679 150.533 55.0839C151.173 55.4892 151.653 56.0279 151.973 56.6999C152.293 57.3612 152.453 58.0759 152.453 58.8439V59.6439H144.757V58.2839H151.061L150.373 58.9559C150.373 58.4012 150.293 57.9266 150.133 57.5319C149.973 57.1372 149.728 56.8332 149.397 56.6199C149.077 56.4066 148.672 56.2999 148.181 56.2999C147.69 56.2999 147.274 56.4119 146.933 56.6359C146.592 56.8599 146.33 57.1852 146.149 57.6119C145.978 58.0279 145.893 58.5292 145.893 59.1159C145.893 59.6599 145.978 60.1452 146.149 60.5719C146.32 60.9879 146.581 61.3186 146.933 61.5639C147.285 61.7986 147.733 61.9159 148.277 61.9159C148.821 61.9159 149.264 61.8092 149.605 61.5959C149.946 61.3719 150.165 61.0999 150.261 60.7799H152.309C152.181 61.3772 151.936 61.8999 151.573 62.3479C151.21 62.7959 150.746 63.1426 150.181 63.3879C149.626 63.6332 148.992 63.7559 148.277 63.7559Z" fill="#18182C"/>
</svg>
