<svg width="200" height="200" viewBox="0 0 200 200" fill="none" xmlns="http://www.w3.org/2000/svg">
<rect width="200" height="200" fill="white"/>
<path d="M154.157 90.4869C154.157 86.1845 157.679 82.6967 162.022 82.6967C166.366 82.6967 169.888 86.1845 169.888 90.4869V109.963C169.888 114.265 166.366 117.753 162.022 117.753C157.679 117.753 154.157 114.265 154.157 109.963V90.4869Z" fill="#6366F1"/>
<path d="M29.6629 90.4869C29.6629 86.1845 33.1843 82.6967 37.5281 82.6967C41.8719 82.6967 45.3932 86.1845 45.3932 90.4869V109.963C45.3932 114.265 41.8719 117.753 37.5281 117.753C33.1843 117.753 29.6629 114.265 29.6629 109.963V90.4869Z" fill="#6366F1"/>
<path d="M123.146 118.382C123.146 114.063 126.567 110.562 130.787 110.562C135.006 110.562 138.427 114.063 138.427 118.382V128.809C138.427 133.128 135.006 136.629 130.787 136.629C126.567 136.629 123.146 133.128 123.146 128.809V118.382Z" fill="#6366F1"/>
<path d="M61.1236 118.382C61.1236 114.063 64.5443 110.562 68.764 110.562C72.9837 110.562 76.4045 114.063 76.4045 118.382V128.809C76.4045 133.128 72.9837 136.629 68.764 136.629C64.5443 136.629 61.1236 133.128 61.1236 128.809V118.382Z" fill="#6366F1"/>
<path fill-rule="evenodd" clip-rule="evenodd" d="M92.0449 58.1117C92.0449 53.8179 95.5059 50.337 99.7753 50.337C104.045 50.337 107.506 53.8179 107.506 58.1117C107.506 62.4056 110.967 65.8864 115.236 65.8864L121.191 65.8864C123.573 65.8864 125.763 64.6199 127.995 63.7827C128.836 63.4673 129.746 63.2949 130.697 63.2949C134.966 63.2949 138.427 66.7757 138.427 71.0696L138.427 77.2245L138.427 87.2668C138.427 91.5607 134.966 95.0415 130.697 95.0415C126.866 95.0415 123.687 92.2397 123.073 88.5626C123.003 88.1412 122.966 87.7083 122.966 87.2668C122.966 82.973 119.505 79.4921 115.236 79.4921C110.967 79.4921 107.506 82.973 107.506 87.2668L107.506 88.5626L107.506 142.338C107.506 146.631 104.045 150.112 99.7753 150.112C95.5059 150.112 92.0449 146.631 92.0449 142.338L92.0449 88.5626L92.0449 87.2668C92.0449 82.973 88.5839 79.4921 84.3146 79.4921C80.0452 79.4921 76.5842 82.973 76.5842 87.2668C76.5842 87.7083 76.5477 88.1412 76.4774 88.5626C75.864 92.2397 72.6843 95.0415 68.8539 95.0415C64.5846 95.0415 61.1236 91.5607 61.1236 87.2668L61.1236 77.2245L61.1236 71.0696C61.1236 66.7757 64.5846 63.2949 68.8539 63.2949C69.8041 63.2949 70.7142 63.4673 71.5551 63.7827C73.787 64.6199 75.9773 65.8864 78.3594 65.8864L84.3146 65.8864C88.5839 65.8864 92.0449 62.4056 92.0449 58.1117Z" fill="#6366F1"/>
</svg>
